# xmcd
#
# Track frame offsets:
#	150
#	13582
#	25546
#	37024
#	51990
#	67874
#	78230
#	90299
#	105385
#	125111
#	141015
#	156315
#	168984
#	182733
#	201587
#	214895
#	229898
#	243955
#	253470
#	264374
#
# Disc length: 3722 seconds
#
# Revision: 0
# Processed by: cddbd v1.5.2PL0 Copyright (c) Steve Scherf et al.
# Submitted via: EasyCDDAExtractor 2010.6.0.0
#
DISCID=140e8814
DTITLE=KENNY ROGERS - KENNY ROGERS AND THE FIRST EDITION
DYEAR=1997
DGENRE=COUNTRY
TTITLE0=RUBY, DON'T TAKE YOUR LOVE TO TOWN
TTITLE1=ME AND BOBBY MCGEE
TTITLE2=POEM FOR MY LITTLE LADY
TTITLE3=FOR THE GOOD TIMES
TTITLE4=GOOD LADY OF TORONTO
TTITLE5=WHERE DOES ROSIE GO
TTITLE6=WHAT AM I GONNA DO
TTITLE7=ALL GOD'S LONELY CHILDREN
TTITLE8=LAY IT DOWN
TTITLE9=TULSA TURNAROUND
TTITLE10=TELL IT ALL BROTHER
TTITLE11=LOVE WOMAN
TTITLE12=I'M GONNA TO SING YOU A SAD SONG SUZY
TTITLE13=THE KING OF THE OAK STREET
TTITLE14=SHINE ON RUBY MOUNTAIN
TTITLE15=HEED THE CALL
TTITLE16=MOLLY
TTITLE17=CAMPTOWN LADIES
TTITLE18=WE ALL GOT TO HELP EACH OTHER
TTITLE19=AFTER ALL
EXTD=
EXTT0=
EXTT1=
EXTT2=
EXTT3=
EXTT4=
EXTT5=
EXTT6=
EXTT7=
EXTT8=
EXTT9=
EXTT10=
EXTT11=
EXTT12=
EXTT13=
EXTT14=
EXTT15=
EXTT16=
EXTT17=
EXTT18=
EXTT19=
PLAYORDER=
